<mxfile host="app.diagrams.net" modified="2020-05-22T13:22:16.845Z" agent="Mozilla/5.0 (Windows NT 10.0; Win64; x64) AppleWebKit/537.36 (KHTML, like Gecko) Chrome/83.0.4103.61 Safari/537.36" etag="rHrCCpKLG4-dvjUUSIZE" version="12.9.3" type="github">
  <diagram id="XAuINee-cAV85EihBbFR" name="Page-1">
    <mxGraphModel dx="1038" dy="580" grid="1" gridSize="10" guides="1" tooltips="1" connect="1" arrows="1" fold="1" page="1" pageScale="1" pageWidth="827" pageHeight="1169" math="0" shadow="0">
      <root>
        <mxCell id="0" />
        <mxCell id="1" parent="0" />
        <mxCell id="G0vkxuDNQqhEIHFCdH5S-11" value="" style="strokeWidth=1;shadow=0;dashed=0;align=center;html=1;shape=mxgraph.mockup.containers.browserWindow;rSize=0;strokeColor=#666666;strokeColor2=#008cff;strokeColor3=#c4c4c4;mainText=,;recursiveResize=0;fillColor=#f5f5f5;fontColor=#333333;" parent="1" vertex="1">
          <mxGeometry x="39" y="70" width="800" height="710" as="geometry" />
        </mxCell>
        <mxCell id="G0vkxuDNQqhEIHFCdH5S-12" value="Page 1" style="strokeWidth=1;shadow=0;dashed=0;align=center;html=1;shape=mxgraph.mockup.containers.anchor;fontSize=17;fontColor=#666666;align=left;" parent="G0vkxuDNQqhEIHFCdH5S-11" vertex="1">
          <mxGeometry x="60" y="12" width="110" height="26" as="geometry" />
        </mxCell>
        <mxCell id="G0vkxuDNQqhEIHFCdH5S-13" value="https://www.draw.io" style="strokeWidth=1;shadow=0;dashed=0;align=center;html=1;shape=mxgraph.mockup.containers.anchor;rSize=0;fontSize=17;fontColor=#666666;align=left;" parent="G0vkxuDNQqhEIHFCdH5S-11" vertex="1">
          <mxGeometry x="130" y="60" width="250" height="26" as="geometry" />
        </mxCell>
        <mxCell id="G0vkxuDNQqhEIHFCdH5S-14" value="Navbar" style="html=1;shadow=0;dashed=0;fillColor=#343A40;strokeColor=none;fontSize=16;fontColor=#ffffff;align=left;spacing=15;" parent="G0vkxuDNQqhEIHFCdH5S-11" vertex="1">
          <mxGeometry y="110" width="800" height="60" as="geometry" />
        </mxCell>
        <mxCell id="G0vkxuDNQqhEIHFCdH5S-15" value="Home" style="fillColor=none;strokeColor=none;fontSize=14;fontColor=#ffffff;align=center;" parent="G0vkxuDNQqhEIHFCdH5S-14" vertex="1">
          <mxGeometry width="70" height="40" relative="1" as="geometry">
            <mxPoint x="70" y="10" as="offset" />
          </mxGeometry>
        </mxCell>
        <mxCell id="G0vkxuDNQqhEIHFCdH5S-16" value="Features" style="fillColor=none;strokeColor=none;fontSize=14;fontColor=#9A9DA0;align=center;" parent="G0vkxuDNQqhEIHFCdH5S-14" vertex="1">
          <mxGeometry width="70" height="40" relative="1" as="geometry">
            <mxPoint x="140" y="10" as="offset" />
          </mxGeometry>
        </mxCell>
        <mxCell id="G0vkxuDNQqhEIHFCdH5S-17" value="Pricing" style="fillColor=none;strokeColor=none;fontSize=14;fontColor=#9A9DA0;align=center;spacingRight=0;" parent="G0vkxuDNQqhEIHFCdH5S-14" vertex="1">
          <mxGeometry width="80" height="40" relative="1" as="geometry">
            <mxPoint x="210" y="10" as="offset" />
          </mxGeometry>
        </mxCell>
        <mxCell id="G0vkxuDNQqhEIHFCdH5S-18" value="About" style="fillColor=none;strokeColor=none;fontSize=14;fontColor=#9A9DA0;align=center;" parent="G0vkxuDNQqhEIHFCdH5S-14" vertex="1">
          <mxGeometry width="80" height="40" relative="1" as="geometry">
            <mxPoint x="290" y="10" as="offset" />
          </mxGeometry>
        </mxCell>
        <mxCell id="G0vkxuDNQqhEIHFCdH5S-19" value="Search" style="html=1;shadow=0;dashed=0;shape=mxgraph.bootstrap.rrect;rSize=5;fontSize=14;fontColor=#1CA5B8;strokeColor=#1CA5B8;fillColor=none;" parent="G0vkxuDNQqhEIHFCdH5S-14" vertex="1">
          <mxGeometry x="1" width="70" height="40" relative="1" as="geometry">
            <mxPoint x="-80" y="10" as="offset" />
          </mxGeometry>
        </mxCell>
        <mxCell id="G0vkxuDNQqhEIHFCdH5S-20" value="Search" style="html=1;shadow=0;dashed=0;shape=mxgraph.bootstrap.rrect;rSize=5;fontSize=14;fontColor=#6C767D;strokeColor=#CED4DA;fillColor=#ffffff;align=left;spacing=10;" parent="G0vkxuDNQqhEIHFCdH5S-14" vertex="1">
          <mxGeometry x="1" width="180" height="40" relative="1" as="geometry">
            <mxPoint x="-270" y="10" as="offset" />
          </mxGeometry>
        </mxCell>
        <mxCell id="4fn5vu_Aj_78YFk8LoBf-2" value="" style="verticalLabelPosition=bottom;shadow=0;dashed=0;align=center;html=1;verticalAlign=top;strokeWidth=1;shape=mxgraph.mockup.navigation.coverFlow;strokeColor=#999999;" vertex="1" parent="1">
          <mxGeometry x="40" y="290" width="800" height="440" as="geometry" />
        </mxCell>
        <mxCell id="4fn5vu_Aj_78YFk8LoBf-3" value="" style="html=1;shadow=0;dashed=0;shape=mxgraph.bootstrap.rrect;rSize=5;strokeColor=#DFDFDF;html=1;whiteSpace=wrap;fillColor=#ffffff;fontColor=#000000;verticalAlign=bottom;align=left;spacing=20;spacingBottom=130;fontSize=14;container=1;" vertex="1" parent="1">
          <mxGeometry x="310" y="300" width="260" height="420" as="geometry" />
        </mxCell>
        <mxCell id="4fn5vu_Aj_78YFk8LoBf-4" value="Image cap" style="html=1;shadow=0;dashed=0;shape=mxgraph.bootstrap.topButton;rSize=5;perimeter=none;whiteSpace=wrap;fillColor=#868E96;strokeColor=#DFDFDF;fontColor=#DEE2E6;resizeWidth=1;fontSize=18;" vertex="1" parent="4fn5vu_Aj_78YFk8LoBf-3">
          <mxGeometry width="260" height="140" relative="1" as="geometry" />
        </mxCell>
        <mxCell id="4fn5vu_Aj_78YFk8LoBf-5" value="&lt;b&gt;&lt;font style=&quot;font-size: 20px&quot;&gt;Question #&lt;/font&gt;&lt;/b&gt;&lt;br style=&quot;font-size: 14px&quot;&gt;&lt;br style=&quot;font-size: 14px&quot;&gt;Here is the question. Such as do you prefer wine or beer?" style="perimeter=none;html=1;whiteSpace=wrap;fillColor=none;strokeColor=none;resizeWidth=1;verticalAlign=top;align=left;spacing=20;spacingTop=-10;fontSize=14;" vertex="1" parent="4fn5vu_Aj_78YFk8LoBf-3">
          <mxGeometry width="260" height="120" relative="1" as="geometry">
            <mxPoint x="-1" y="160" as="offset" />
          </mxGeometry>
        </mxCell>
        <mxCell id="4fn5vu_Aj_78YFk8LoBf-6" value="Home" style="html=1;shadow=0;dashed=0;shape=mxgraph.bootstrap.rrect;rSize=5;perimeter=none;whiteSpace=wrap;fillColor=none;strokeColor=none;fontColor=#0085FC;resizeWidth=1;fontSize=14;align=center;" vertex="1" parent="4fn5vu_Aj_78YFk8LoBf-3">
          <mxGeometry y="1" width="83.2" height="40" relative="1" as="geometry">
            <mxPoint x="10" y="-50" as="offset" />
          </mxGeometry>
        </mxCell>
        <mxCell id="4fn5vu_Aj_78YFk8LoBf-7" value="Next" style="html=1;shadow=0;dashed=0;shape=mxgraph.bootstrap.rrect;rSize=5;perimeter=none;whiteSpace=wrap;fillColor=none;strokeColor=none;fontColor=#0085FC;resizeWidth=1;fontSize=14;align=center;" vertex="1" parent="4fn5vu_Aj_78YFk8LoBf-3">
          <mxGeometry y="1" width="104" height="40" relative="1" as="geometry">
            <mxPoint x="140" y="-50" as="offset" />
          </mxGeometry>
        </mxCell>
        <mxCell id="4fn5vu_Aj_78YFk8LoBf-8" value="How do you rate this question?" style="html=1;shadow=0;dashed=0;shape=mxgraph.bootstrap.rangeInput;dx=0.78;strokeColor=#9D968E;fillColor=#E3DDD8;fontColor=#777777;whiteSpace=wrap;align=left;verticalAlign=bottom;fontStyle=0;fontSize=14;labelPosition=center;verticalLabelPosition=top;gradientColor=#F4F2EF;gradientDirection=north;rangeStyle=rect;handleStyle=rect;" vertex="1" parent="4fn5vu_Aj_78YFk8LoBf-3">
          <mxGeometry x="10.4" y="345.33333333333337" width="239.20000000000002" height="18.666666666666664" as="geometry" />
        </mxCell>
        <mxCell id="4fn5vu_Aj_78YFk8LoBf-9" value="Readonly input here..." style="html=1;shadow=0;dashed=0;shape=mxgraph.bootstrap.rrect;rSize=5;strokeColor=#CED4DA;strokeWidth=1;fillColor=#E9ECEF;fontColor=#505050;whiteSpace=wrap;align=left;verticalAlign=middle;spacingLeft=10;fontSize=14;" vertex="1" parent="4fn5vu_Aj_78YFk8LoBf-3">
          <mxGeometry x="10.4" y="252" width="239.20000000000002" height="37.33333333333333" as="geometry" />
        </mxCell>
      </root>
    </mxGraphModel>
  </diagram>
</mxfile>
